<svg height="14" viewBox="0 0 14 14" width="14" xmlns="http://www.w3.org/2000/svg"><path d="m4.46446609 5.87867966 1.41421357 1.41421356-2.12132035 2.12132034c-.78104858.78104854-.78104858 2.04737854 0 2.82842714.78104859.7810486 2.04737854.7810486 2.82842713 0l2.12132034-2.1213204 1.41421352 1.4142136-2.1213203 2.1213203c-1.56209717 1.5620972-4.09475708 1.5620972-5.65685425 0-1.56209717-1.5620971-1.56209717-4.09475703 0-5.6568542zm1.41421357-1.41421357 2.12132034-2.12132034c1.56209717-1.56209717 4.0947571-1.56209717 5.6568542 0 1.5620972 1.56209717 1.5620972 4.09475708 0 5.65685425l-2.1213203 2.1213203-1.4142136-1.41421352 2.1213204-2.12132034c.7810486-.78104859.7810486-2.04737854 0-2.82842713-.7810486-.78104858-2.0473786-.78104858-2.82842714 0l-2.12132034 2.12132035zm0 4.24264069 2.82842712-2.82842712c.39052429-.3905243 1.02368927-.3905243 1.41421352 0 .3905243.39052429.3905243 1.02368927 0 1.41421356l-2.82842708 2.82842708c-.39052429.3905243-1.02368927.3905243-1.41421356 0-.3905243-.39052425-.3905243-1.02368923 0-1.41421352z" fill="#293040" transform="translate(-1 -1)"/></svg>